<?xml version="1.0" encoding="UTF-8"?>
<svg xmlns="http://www.w3.org/2000/svg" xmlns:xlink="http://www.w3.org/1999/xlink" width="810pt" height="242.999999pt" viewBox="0 0 810 242.999999" version="1.2">
<g id="surface1">
<path style=" stroke:none;fill-rule:nonzero;fill:rgb(97.24884%,28.239441%,36.859131%);fill-opacity:1;" d="M 753.542969 225.261719 L 56.457031 225.261719 C 25.273438 225.261719 0 199.988281 0 168.886719 L 0 74.113281 C 0 42.929688 25.273438 17.65625 56.457031 17.65625 L 753.625 17.65625 C 784.808594 17.65625 810.082031 42.929688 810.082031 74.113281 L 810.082031 168.804688 C 810 199.988281 784.726562 225.261719 753.542969 225.261719 Z M 753.542969 225.261719 "/>
<path style=" stroke:none;fill-rule:nonzero;fill:rgb(100%,100%,100%);fill-opacity:1;" d="M 195.613281 78.085938 C 195.613281 84.078125 195.128906 158.839844 194.722656 165.726562 C 194.238281 171.234375 188.730469 177.226562 180.953125 177.226562 C 178.441406 177.226562 175.851562 176.660156 173.339844 175.285156 C 165.5625 171.234375 129.925781 123.847656 121.015625 112.023438 C 121.175781 123.28125 121.339844 160.136719 121.175781 165.644531 C 120.851562 172.207031 114.695312 176.257812 109.027344 176.578125 C 103.519531 176.902344 97.523438 173.015625 96.714844 164.023438 C 95.984375 155.035156 95.660156 85.617188 95.824219 80.675781 C 96.308594 73.0625 100.765625 67.960938 108.136719 66.90625 C 108.703125 66.90625 109.511719 66.742188 110.242188 66.742188 C 114.289062 66.742188 120.285156 68.121094 126.441406 74.683594 C 131.382812 80.109375 162.972656 124.011719 171.394531 135.511719 L 171.394531 78.40625 C 171.394531 70.632812 177.714844 65.933594 183.546875 65.933594 L 183.871094 65.933594 C 189.460938 66.257812 195.613281 71.199219 195.613281 78.085938 Z M 195.613281 78.085938 "/>
<path style=" stroke:none;fill-rule:nonzero;fill:rgb(100%,100%,100%);fill-opacity:1;" d="M 304.804688 166.210938 C 304.804688 170.828125 300.753906 177.875 294.757812 178.199219 C 289.25 178.523438 246.484375 178.929688 241.542969 178.929688 C 235.386719 178.929688 228.097656 176.660156 227.609375 166.050781 C 227.125 156.328125 227.609375 120.527344 227.933594 99.0625 C 228.097656 91.285156 228.097656 85.132812 228.097656 83.023438 C 228.097656 72.980469 232.46875 68.203125 241.867188 67.878906 L 250.128906 67.878906 C 264.949219 67.878906 290.464844 68.203125 296.296875 68.445312 C 303.667969 68.605469 306.910156 75.007812 306.910156 80.917969 C 306.910156 87.964844 302.453125 92.339844 294.921875 92.582031 C 291.601562 92.746094 285.039062 92.746094 275.5625 92.746094 L 257.011719 92.746094 C 255.230469 92.746094 254.179688 93.960938 253.855469 96.472656 C 253.691406 97.039062 253.53125 103.03125 253.53125 110.726562 C 265.84375 111.050781 287.953125 111.617188 292.167969 111.617188 C 294.433594 111.617188 296.378906 112.507812 298 114.128906 C 300.105469 116.558594 301.480469 120.121094 301.320312 123.605469 C 300.996094 128.546875 296.863281 134.21875 290.953125 134.378906 C 289.898438 134.542969 287.632812 134.542969 284.230469 134.542969 C 275.722656 134.542969 261.792969 134.378906 253.367188 134.21875 C 253.207031 142.316406 253.207031 148.878906 253.207031 150.253906 C 253.207031 152.765625 256.042969 153.738281 258.632812 153.738281 C 265.519531 153.738281 288.765625 153.738281 295.082031 154.0625 C 301.804688 154.386719 304.804688 161.433594 304.804688 166.210938 Z M 304.804688 166.210938 "/>
<path style=" stroke:none;fill-rule:nonzero;fill:rgb(100%,100%,100%);fill-opacity:1;" d="M 417.636719 155.601562 C 422.578125 162.484375 424.519531 167.914062 417.3125 174.472656 C 410.589844 180.628906 402.328125 175.933594 396.898438 169.855469 C 394.46875 167.023438 385.234375 155.601562 374.464844 141.992188 C 362.152344 156.410156 351.863281 168.480469 349.757812 170.425781 C 343.765625 176.578125 338.660156 179.578125 330.886719 173.421875 C 323.515625 167.589844 326.835938 158.597656 332.101562 152.117188 C 334.609375 148.960938 345.546875 136.078125 358.019531 121.257812 C 345.304688 105.058594 333.882812 90.394531 332.101562 87.398438 C 327.726562 80.351562 330.886719 73.304688 334.933594 70.144531 C 338.984375 66.824219 347.410156 65.933594 352.429688 72.65625 C 354.214844 75.328125 363.851562 87.316406 374.867188 101.410156 C 388.070312 85.941406 399.734375 72.496094 402.328125 70.226562 C 408.644531 64.71875 416.257812 66.664062 420.148438 70.066406 C 424.195312 73.628906 426.464844 81.890625 420.472656 88.210938 C 417.960938 90.882812 405.160156 105.703125 391.230469 122.066406 C 404.351562 138.511719 415.855469 153.007812 417.636719 155.601562 Z M 417.636719 155.601562 "/>
<path style=" stroke:none;fill-rule:nonzero;fill:rgb(100%,100%,100%);fill-opacity:1;" d="M 539.054688 75.25 C 539.054688 79.703125 535.003906 86.023438 527.632812 85.699219 C 524.800781 85.535156 514.59375 85.699219 502.441406 85.859375 C 502.117188 97.6875 502.441406 159.730469 502.117188 166.210938 C 501.796875 174.148438 500.175781 179.414062 490.859375 179.820312 C 482.355469 180.386719 479.035156 172.207031 478.710938 164.511719 C 478.386719 156.085938 478.144531 100.683594 478.871094 86.101562 C 466.316406 86.425781 455.625 86.589844 453.277344 86.425781 C 445.824219 86.101562 440.722656 84.484375 439.507812 75.976562 C 438.453125 67.472656 446.714844 63.503906 453.925781 63.261719 C 462.347656 62.9375 521.640625 62.9375 528.6875 63.828125 C 535.894531 64.636719 539.054688 70.632812 539.054688 75.25 Z M 539.054688 75.25 "/>
<path style=" stroke:none;fill-rule:nonzero;fill:rgb(100%,100%,100%);fill-opacity:1;" d="M 606.367188 155.359375 L 666.550781 155.359375 C 670.679688 155.359375 674 158.679688 674 162.808594 L 674 174.554688 C 674 181.035156 681.695312 184.4375 686.554688 180.0625 L 743.742188 127.738281 C 746.980469 124.820312 746.980469 119.71875 743.824219 116.800781 L 686.636719 63.019531 C 681.859375 58.5625 674 61.882812 674 68.445312 L 674 79.867188 C 674 83.996094 670.679688 87.316406 666.550781 87.316406 L 606.367188 87.316406 C 602.234375 87.316406 598.914062 90.640625 598.914062 94.769531 L 598.914062 147.742188 C 598.832031 151.957031 602.234375 155.359375 606.367188 155.359375 Z M 606.367188 155.359375 "/>
</g>
</svg>
